<mxfile host="app.diagrams.net" modified="2023-05-02T21:27:14.101Z" agent="Mozilla/5.0 (Windows NT 10.0; Win64; x64) AppleWebKit/537.36 (KHTML, like Gecko) Chrome/112.0.0.0 Safari/537.36" etag="k5uUzwQF8FpQN6gwcLrA" version="21.2.4" type="google">
  <diagram name="Main" id="PjjdQhJnc-u67xA29sAF">
    <mxGraphModel grid="1" page="1" gridSize="10" guides="1" tooltips="1" connect="1" arrows="1" fold="1" pageScale="1" pageWidth="850" pageHeight="1100" math="0" shadow="0">
      <root>
        <mxCell id="aXXytz8-QFqxuCheHmFr-0" />
        <mxCell id="aXXytz8-QFqxuCheHmFr-1" parent="aXXytz8-QFqxuCheHmFr-0" />
        <mxCell id="Mss8GM8px16gd3YciIg8-0" value="View Control" style="rounded=0;whiteSpace=wrap;html=1;" vertex="1" parent="aXXytz8-QFqxuCheHmFr-1">
          <mxGeometry x="50" y="40" width="120" height="30" as="geometry" />
        </mxCell>
        <mxCell id="Mss8GM8px16gd3YciIg8-1" value="Repository" style="rounded=0;whiteSpace=wrap;html=1;" vertex="1" parent="aXXytz8-QFqxuCheHmFr-1">
          <mxGeometry x="130" y="170" width="120" height="30" as="geometry" />
        </mxCell>
        <mxCell id="Mss8GM8px16gd3YciIg8-3" value="Destination" style="rounded=0;whiteSpace=wrap;html=1;" vertex="1" parent="aXXytz8-QFqxuCheHmFr-1">
          <mxGeometry x="340" y="170" width="120" height="20" as="geometry" />
        </mxCell>
        <mxCell id="Mss8GM8px16gd3YciIg8-4" value="Photo" style="rounded=0;whiteSpace=wrap;html=1;" vertex="1" parent="aXXytz8-QFqxuCheHmFr-1">
          <mxGeometry x="340" y="200" width="120" height="20" as="geometry" />
        </mxCell>
        <mxCell id="Mss8GM8px16gd3YciIg8-5" value="" style="endArrow=classic;html=1;rounded=0;exitX=1;exitY=0.321;exitDx=0;exitDy=0;exitPerimeter=0;" edge="1" parent="aXXytz8-QFqxuCheHmFr-1" source="Mss8GM8px16gd3YciIg8-1" target="Mss8GM8px16gd3YciIg8-3">
          <mxGeometry width="50" height="50" relative="1" as="geometry">
            <mxPoint x="280" y="60" as="sourcePoint" />
            <mxPoint x="330" y="180" as="targetPoint" />
          </mxGeometry>
        </mxCell>
        <mxCell id="Mss8GM8px16gd3YciIg8-7" value="" style="endArrow=none;html=1;rounded=0;exitX=0.003;exitY=0.667;exitDx=0;exitDy=0;exitPerimeter=0;" edge="1" parent="aXXytz8-QFqxuCheHmFr-1" source="Mss8GM8px16gd3YciIg8-1">
          <mxGeometry width="50" height="50" relative="1" as="geometry">
            <mxPoint x="20" y="160" as="sourcePoint" />
            <mxPoint x="60" y="70" as="targetPoint" />
            <Array as="points">
              <mxPoint x="60" y="190" />
            </Array>
          </mxGeometry>
        </mxCell>
        <mxCell id="HlM06eir8GxsJ1EFT_cW-0" value="Destination" style="rounded=0;whiteSpace=wrap;html=1;" vertex="1" parent="aXXytz8-QFqxuCheHmFr-1">
          <mxGeometry x="145" y="560" width="120" height="30" as="geometry" />
        </mxCell>
        <mxCell id="HlM06eir8GxsJ1EFT_cW-1" value="PublicDestination" style="rounded=0;whiteSpace=wrap;html=1;" vertex="1" parent="aXXytz8-QFqxuCheHmFr-1">
          <mxGeometry x="65" y="630" width="120" height="30" as="geometry" />
        </mxCell>
        <mxCell id="HlM06eir8GxsJ1EFT_cW-2" value="PrivateDestination" style="rounded=0;whiteSpace=wrap;html=1;" vertex="1" parent="aXXytz8-QFqxuCheHmFr-1">
          <mxGeometry x="245" y="630" width="120" height="30" as="geometry" />
        </mxCell>
        <mxCell id="HlM06eir8GxsJ1EFT_cW-4" value="" style="endArrow=block;endSize=16;endFill=0;html=1;rounded=0;" edge="1" parent="aXXytz8-QFqxuCheHmFr-1" source="HlM06eir8GxsJ1EFT_cW-2" target="HlM06eir8GxsJ1EFT_cW-0">
          <mxGeometry width="160" relative="1" as="geometry">
            <mxPoint x="335" y="600" as="sourcePoint" />
            <mxPoint x="495" y="600" as="targetPoint" />
          </mxGeometry>
        </mxCell>
        <mxCell id="HlM06eir8GxsJ1EFT_cW-5" value="" style="endArrow=block;endSize=16;endFill=0;html=1;rounded=0;" edge="1" parent="aXXytz8-QFqxuCheHmFr-1" source="HlM06eir8GxsJ1EFT_cW-1" target="HlM06eir8GxsJ1EFT_cW-0">
          <mxGeometry width="160" relative="1" as="geometry">
            <mxPoint x="345" y="610" as="sourcePoint" />
            <mxPoint x="505" y="610" as="targetPoint" />
          </mxGeometry>
        </mxCell>
        <mxCell id="HlM06eir8GxsJ1EFT_cW-6" value="GenericUser" style="rounded=0;whiteSpace=wrap;html=1;" vertex="1" parent="aXXytz8-QFqxuCheHmFr-1">
          <mxGeometry x="505" y="560" width="120" height="30" as="geometry" />
        </mxCell>
        <mxCell id="HlM06eir8GxsJ1EFT_cW-7" value="Admin" style="rounded=0;whiteSpace=wrap;html=1;" vertex="1" parent="aXXytz8-QFqxuCheHmFr-1">
          <mxGeometry x="425" y="630" width="120" height="30" as="geometry" />
        </mxCell>
        <mxCell id="HlM06eir8GxsJ1EFT_cW-8" value="User" style="rounded=0;whiteSpace=wrap;html=1;" vertex="1" parent="aXXytz8-QFqxuCheHmFr-1">
          <mxGeometry x="605" y="630" width="120" height="30" as="geometry" />
        </mxCell>
        <mxCell id="HlM06eir8GxsJ1EFT_cW-9" value="" style="endArrow=block;endSize=16;endFill=0;html=1;rounded=0;" edge="1" parent="aXXytz8-QFqxuCheHmFr-1" source="HlM06eir8GxsJ1EFT_cW-8" target="HlM06eir8GxsJ1EFT_cW-6">
          <mxGeometry width="160" relative="1" as="geometry">
            <mxPoint x="695" y="600" as="sourcePoint" />
            <mxPoint x="855" y="600" as="targetPoint" />
          </mxGeometry>
        </mxCell>
        <mxCell id="HlM06eir8GxsJ1EFT_cW-10" value="" style="endArrow=block;endSize=16;endFill=0;html=1;rounded=0;" edge="1" parent="aXXytz8-QFqxuCheHmFr-1" source="HlM06eir8GxsJ1EFT_cW-7" target="HlM06eir8GxsJ1EFT_cW-6">
          <mxGeometry width="160" relative="1" as="geometry">
            <mxPoint x="705" y="610" as="sourcePoint" />
            <mxPoint x="865" y="610" as="targetPoint" />
          </mxGeometry>
        </mxCell>
        <mxCell id="HlM06eir8GxsJ1EFT_cW-11" value="Destination" style="rounded=0;whiteSpace=wrap;html=1;" vertex="1" parent="aXXytz8-QFqxuCheHmFr-1">
          <mxGeometry x="10" y="870" width="140" height="40" as="geometry" />
        </mxCell>
        <mxCell id="HlM06eir8GxsJ1EFT_cW-17" value="Photo" style="rounded=0;whiteSpace=wrap;html=1;" vertex="1" parent="aXXytz8-QFqxuCheHmFr-1">
          <mxGeometry x="10" y="1050" width="140" height="40" as="geometry" />
        </mxCell>
        <mxCell id="HlM06eir8GxsJ1EFT_cW-18" value="" style="endArrow=open;html=1;endSize=12;startArrow=diamondThin;startSize=14;startFill=0;edgeStyle=orthogonalEdgeStyle;rounded=0;" edge="1" parent="aXXytz8-QFqxuCheHmFr-1" source="HlM06eir8GxsJ1EFT_cW-17" target="HlM06eir8GxsJ1EFT_cW-11">
          <mxGeometry x="0.25" relative="1" as="geometry">
            <mxPoint x="220" y="950" as="sourcePoint" />
            <mxPoint x="380" y="950" as="targetPoint" />
            <mxPoint as="offset" />
          </mxGeometry>
        </mxCell>
        <mxCell id="HlM06eir8GxsJ1EFT_cW-19" value="0..n" style="edgeLabel;resizable=0;html=1;align=left;verticalAlign=top;" connectable="0" vertex="1" parent="HlM06eir8GxsJ1EFT_cW-18">
          <mxGeometry x="-1" relative="1" as="geometry" />
        </mxCell>
        <mxCell id="HlM06eir8GxsJ1EFT_cW-20" value="1" style="edgeLabel;resizable=0;html=1;align=right;verticalAlign=top;" connectable="0" vertex="1" parent="HlM06eir8GxsJ1EFT_cW-18">
          <mxGeometry x="1" relative="1" as="geometry" />
        </mxCell>
        <mxCell id="HlM06eir8GxsJ1EFT_cW-21" value="User" style="rounded=0;whiteSpace=wrap;html=1;" vertex="1" parent="aXXytz8-QFqxuCheHmFr-1">
          <mxGeometry x="180" y="930" width="140" height="40" as="geometry" />
        </mxCell>
        <mxCell id="y_g9w7l4ttaQwChAoTdU-0" value="&lt;h1&gt;&lt;font style=&quot;font-size: 12px;&quot;&gt;Associations Among Boundary, Control and Selected Entity objects participating in the&amp;nbsp; AddPublicDestination UseCase&lt;/font&gt;&lt;/h1&gt;" style="text;html=1;strokeColor=none;fillColor=none;spacing=5;spacingTop=-20;whiteSpace=wrap;overflow=hidden;rounded=0;" vertex="1" parent="aXXytz8-QFqxuCheHmFr-1">
          <mxGeometry x="545" y="40" width="190" height="120" as="geometry" />
        </mxCell>
        <mxCell id="y_g9w7l4ttaQwChAoTdU-1" value="&lt;h1&gt;&lt;font style=&quot;font-size: 12px;&quot;&gt;Inheritance hierarchy among entity objects of the AddPublicDestination UseCase&lt;/font&gt;&lt;/h1&gt;" style="text;html=1;strokeColor=none;fillColor=none;spacing=5;spacingTop=-20;whiteSpace=wrap;overflow=hidden;rounded=0;" vertex="1" parent="aXXytz8-QFqxuCheHmFr-1">
          <mxGeometry x="60" y="420" width="190" height="120" as="geometry" />
        </mxCell>
        <mxCell id="y_g9w7l4ttaQwChAoTdU-2" value="&lt;h1&gt;&lt;font style=&quot;font-size: 12px;&quot;&gt;Entity objects identified after analyzing AddPublicDestination UseCase&lt;/font&gt;&lt;/h1&gt;" style="text;html=1;strokeColor=none;fillColor=none;spacing=5;spacingTop=-20;whiteSpace=wrap;overflow=hidden;rounded=0;" vertex="1" parent="aXXytz8-QFqxuCheHmFr-1">
          <mxGeometry x="395" y="930" width="190" height="120" as="geometry" />
        </mxCell>
        <mxCell id="3qhgistIg1b7TJ-72Lmp-0" value="" style="endArrow=classic;html=1;rounded=0;exitX=1;exitY=0.663;exitDx=0;exitDy=0;exitPerimeter=0;" edge="1" parent="aXXytz8-QFqxuCheHmFr-1" source="Mss8GM8px16gd3YciIg8-1" target="Mss8GM8px16gd3YciIg8-4">
          <mxGeometry width="50" height="50" relative="1" as="geometry">
            <mxPoint x="220" y="100" as="sourcePoint" />
            <mxPoint x="375" y="108" as="targetPoint" />
            <Array as="points">
              <mxPoint x="280" y="190" />
              <mxPoint x="280" y="210" />
            </Array>
          </mxGeometry>
        </mxCell>
        <mxCell id="eAhxlNMgczaV7MICPS9K-0" value="Destination Form" style="rounded=0;whiteSpace=wrap;html=1;" vertex="1" parent="aXXytz8-QFqxuCheHmFr-1">
          <mxGeometry x="100" y="80" width="120" height="30" as="geometry" />
        </mxCell>
        <mxCell id="eAhxlNMgczaV7MICPS9K-1" value="" style="endArrow=none;html=1;rounded=0;" edge="1" parent="aXXytz8-QFqxuCheHmFr-1">
          <mxGeometry width="50" height="50" relative="1" as="geometry">
            <mxPoint x="100" y="100" as="sourcePoint" />
            <mxPoint x="70" y="70" as="targetPoint" />
            <Array as="points">
              <mxPoint x="70" y="100" />
            </Array>
          </mxGeometry>
        </mxCell>
        <mxCell id="eAhxlNMgczaV7MICPS9K-5" value="Message Box" style="rounded=0;whiteSpace=wrap;html=1;" vertex="1" parent="aXXytz8-QFqxuCheHmFr-1">
          <mxGeometry x="130" y="120" width="120" height="30" as="geometry" />
        </mxCell>
        <mxCell id="eAhxlNMgczaV7MICPS9K-6" value="" style="endArrow=none;html=1;rounded=0;exitX=-0.008;exitY=0.653;exitDx=0;exitDy=0;entryX=0.166;entryY=1.011;entryDx=0;entryDy=0;entryPerimeter=0;exitPerimeter=0;" edge="1" parent="aXXytz8-QFqxuCheHmFr-1" source="eAhxlNMgczaV7MICPS9K-5" target="eAhxlNMgczaV7MICPS9K-0">
          <mxGeometry width="50" height="50" relative="1" as="geometry">
            <mxPoint x="141.5" y="183" as="sourcePoint" />
            <mxPoint x="109" y="170" as="targetPoint" />
            <Array as="points">
              <mxPoint x="120" y="140" />
            </Array>
          </mxGeometry>
        </mxCell>
        <mxCell id="eAhxlNMgczaV7MICPS9K-7" value="" style="endArrow=none;html=1;rounded=0;entryX=0.081;entryY=1.001;entryDx=0;entryDy=0;entryPerimeter=0;exitX=-0.002;exitY=0.332;exitDx=0;exitDy=0;exitPerimeter=0;" edge="1" parent="aXXytz8-QFqxuCheHmFr-1" source="Mss8GM8px16gd3YciIg8-1" target="eAhxlNMgczaV7MICPS9K-0">
          <mxGeometry width="50" height="50" relative="1" as="geometry">
            <mxPoint x="130" y="180" as="sourcePoint" />
            <mxPoint x="100" y="148" as="targetPoint" />
            <Array as="points">
              <mxPoint x="110" y="180" />
            </Array>
          </mxGeometry>
        </mxCell>
      </root>
    </mxGraphModel>
  </diagram>
</mxfile>
